<svg xmlns="http://www.w3.org/2000/svg" viewBox="0 0 512 512" role="img" aria-label="ToDo Schedule">
  <rect width="512" height="512" rx="112" fill="#175f45"/>
  <path fill="#fff7df" d="M150 116h212c31 0 56 25 56 56v204c0 31-25 56-56 56H150c-31 0-56-25-56-56V172c0-31 25-56 56-56Z"/>
  <path fill="#c89113" d="M94 198h324v50H94z"/>
  <path fill="#8f1026" d="M165 82c13 0 23 10 23 23v54c0 13-10 23-23 23s-23-10-23-23v-54c0-13 10-23 23-23Zm182 0c13 0 23 10 23 23v54c0 13-10 23-23 23s-23-10-23-23v-54c0-13 10-23 23-23Z"/>
  <path fill="#175f45" d="M159 310c9-10 24-10 34-1l39 37 89-95c9-10 24-10 34-1 10 9 10 24 1 34L251 395c-9 10-25 10-35 1l-56-52c-10-9-10-24-1-34Z"/>
</svg>
